<?xml version="1.0" encoding="UTF-8"?>
<svg id="Layer_1" data-name="Layer 1" xmlns="http://www.w3.org/2000/svg" viewBox="0 0 1000 1000">
  <defs>
    <style>
      .cls-1 {
        fill: #fff;
      }
    </style>
  </defs>
  <path class="cls-1" d="M90.58,339.77v73.26c0,2.52,2.05,4.57,4.57,4.57h31.8c2.52,0,4.57,2.05,4.57,4.57v32.06c0,2.52,2.05,4.57,4.57,4.57h31.8c2.52,0,4.57,2.05,4.57,4.57v32.06c0,2.52,2.05,4.57,4.57,4.57h31.8c2.52,0,4.57,2.05,4.57,4.57v155.67c0,2.52,2.05,4.57,4.57,4.57h31.8c2.52,0,4.57,2.05,4.57,4.57v73.26c0,2.52,2.05,4.57,4.57,4.57h31.8c2.52,0,4.57,2.05,4.57,4.57v32.06c0,2.52,2.05,4.57,4.57,4.57h31.8c2.52,0,4.57,2.05,4.57,4.57v114.46c0,2.52-2.05,4.57-4.57,4.57h-31.8c-2.52,0-4.57,2.05-4.57,4.57v73.26c0,2.52,2.05,4.57,4.57,4.57h72.74c2.52,0,4.57-2.05,4.57-4.57v-32.06c0-2.52,2.05-4.57,4.57-4.57h31.8c2.52,0,4.57-2.05,4.57-4.57v-73.26c0-2.52,2.05-4.57,4.57-4.57h31.8c2.52,0,4.57,2.05,4.57,4.57v73.26c0,2.52-2.05,4.57-4.57,4.57h-31.8c-2.52,0-4.57,2.05-4.57,4.57v32.06c0,2.52,2.05,4.57,4.57,4.57h482.16c2.52,0,4.57-2.05,4.57-4.57v-32.06c0-2.52-2.05-4.57-4.57-4.57h-72.75c-2.52,0-4.57-2.05-4.57-4.57v-32.06c0-2.52,2.05-4.57,4.57-4.57h72.75c2.52,0,4.57-2.05,4.57-4.57v-155.67c0-2.52-2.05-4.57-4.57-4.57h-72.75c-2.52,0-4.57-2.05-4.57-4.57v-73.26c0-2.52-2.05-4.57-4.57-4.57h-31.8c-2.52,0-4.57-2.05-4.57-4.57v-73.26c0-2.52-2.05-4.57-4.57-4.57h-31.8c-2.52,0-4.57-2.05-4.57-4.57v-32.06c0-2.52-2.05-4.57-4.57-4.57h-31.8c-2.52,0-4.57-2.05-4.57-4.57v-32.06c0-2.52-2.05-4.57-4.57-4.57h-31.8c-2.52,0-4.57-2.05-4.57-4.57v-32.06c0-2.52-2.05-4.57-4.57-4.57h-113.68c-2.52,0-4.57-2.05-4.57-4.57v-32.06c0-2.52-2.05-4.57-4.57-4.57h-31.8c-2.52,0-4.57-2.05-4.57-4.57v-114.46c0-2.52,2.05-4.57,4.57-4.57h113.68c2.52,0,4.57-2.05,4.57-4.57v-32.06c0-2.52,2.05-4.57,4.57-4.57h31.8c2.52,0,4.57-2.05,4.57-4.57v-32.06c0-2.52,2.05-4.57,4.57-4.57h72.74c2.52,0,4.57-2.05,4.57-4.57v-32.06c0-2.52,2.05-4.57,4.57-4.57h31.8c2.52,0,4.57-2.05,4.57-4.57v-73.26c0-2.52-2.05-4.57-4.57-4.57h-195.57c-2.52,0-4.57,2.05-4.57,4.57v32.06c0,2.52-2.05,4.57-4.57,4.57h-72.74c-2.52,0-4.57,2.05-4.57,4.57v32.06c0,2.52-2.05,4.57-4.57,4.57h-31.8c-2.52,0-4.57-2.05-4.57-4.57v-32.06c0-2.52,2.05-4.57,4.57-4.57h31.8c2.52,0,4.57-2.05,4.57-4.57v-32.06c0-2.52,2.05-4.57,4.57-4.57h72.74c2.52,0,4.57-2.05,4.57-4.57V10.16c0-2.52-2.05-4.57-4.57-4.57h-113.68c-2.52,0-4.57,2.05-4.57,4.57v32.06c0,2.52-2.05,4.57-4.57,4.57h-31.8c-2.52,0-4.57,2.05-4.57,4.57v32.06c0,2.52-2.05,4.57-4.57,4.57h-31.8c-2.52,0-4.57,2.05-4.57,4.57v32.06c0,2.52-2.05,4.57-4.57,4.57h-31.8c-2.52,0-4.57,2.05-4.57,4.57v32.06c0,2.52,2.05,4.57,4.57,4.57h31.8c2.52,0,4.57,2.05,4.57,4.57v32.06c0,2.52-2.05,4.57-4.57,4.57h-154.63c-2.52,0-4.57,2.05-4.57,4.57v32.06c0,2.52-2.05,4.57-4.57,4.57h-31.8c-2.52,0-4.57,2.05-4.57,4.57v32.06c0,2.52-2.05,4.57-4.57,4.57h-31.8c-2.52,0-4.57,2.05-4.57,4.57v32.06c0,2.52-2.05,4.57-4.57,4.57h-31.8c-2.52,0-4.57,2.05-4.57,4.57Z"/>
</svg>